<svg xmlns="http://www.w3.org/2000/svg" width="64" height="64" viewBox="0 0 64 64" fill="none"><rect width="64" height="64" rx="32" fill="#EAFDFE"></rect><path fill-rule="evenodd" clip-rule="evenodd" d="M22.6667 18.6667C22.6667 17.9303 23.2637 17.3334 24 17.3334H40C40.7364 17.3334 41.3334 17.9303 41.3334 18.6667L41.3334 20C44.2789 20 46.6667 22.3879 46.6667 25.3334C46.6667 28.2789 44.2789 30.6667 41.3334 30.6667H40.4352C39.5132 32.6076 37.941 34.1798 36 35.1019V38.8347C38.3003 39.4268 40 41.5149 40 44V46.6667H24V44C24 41.5149 25.6997 39.4268 28 38.8347V35.1019C26.0591 34.1798 24.4869 32.6076 23.5649 30.6667H22.6667C19.7212 30.6667 17.3334 28.2789 17.3334 25.3334C17.3334 22.3879 19.7212 20 22.6667 20V18.6667ZM22.6667 22.6667C21.1939 22.6667 20 23.8606 20 25.3334C20 26.8061 21.1939 28 22.6667 28V26.6667V22.6667ZM41.3334 26.6667L41.3334 22.6667C42.8061 22.6667 44 23.8606 44 25.3334C44 26.8061 42.8061 28 41.3334 28V26.6727L41.3334 26.6667Z" fill="#0583F2"></path></svg>