<svg xmlns="http://www.w3.org/2000/svg" width="64" height="64" viewBox="0 0 64 64" fill="none"><rect width="64" height="64" rx="32" fill="#EAFDFE"></rect><path d="M42.6667 34.6666C42.6667 40.5577 37.8911 45.3333 32 45.3333C26.109 45.3333 21.3334 40.5577 21.3334 34.6666C21.3334 32 22 30 22.6667 28.6666C23.6225 26.7551 24.9204 27.4926 24.6667 28C24 29.3333 24 32 26.6667 34.6666C27.3334 35.3333 28.6667 34.6666 27.1969 32C26.3163 30.4023 26.6667 26.6666 27.3334 24.6666C28.8889 20 33.0305 16.8485 34 17.3333C35.3334 18 33.3956 20.6565 34 22.6666C34.5856 24.6139 37.3334 26.6666 37.3334 26.6666C37.3334 26.6666 42.6667 30 42.6667 34.6666Z" fill="#0583F2"></path></svg>