<svg xmlns="http://www.w3.org/2000/svg" width="64" height="64" viewBox="0 0 64 64" fill="none"><rect width="64" height="64" rx="32" fill="#EAFDFE"></rect><path fill-rule="evenodd" clip-rule="evenodd" d="M28.383 27.0411C31.4169 23.4254 37.4921 18.6666 45.3333 18.6666C45.3333 25.3015 41.1127 32.5913 36.766 35.983C36.1938 36.4295 36.0902 37.2417 35.9695 38.1886C35.6973 40.3243 35.3377 43.1454 29.3144 44L29.0039 38.4498H27.762L25.2782 35.983V34.7497H20C20.8651 28.7358 23.8392 28.2575 26.0891 27.8956C27.0692 27.738 27.9119 27.6025 28.383 27.0411ZM41.7143 24.3968C41.7143 25.5627 40.7691 26.5079 39.6032 26.5079C38.4372 26.5079 37.4921 25.5627 37.4921 24.3968C37.4921 23.2308 38.4372 22.2857 39.6032 22.2857C40.7691 22.2857 41.7143 23.2308 41.7143 24.3968Z" fill="#0583F2"></path><path d="M18.6667 45.3333C24.6882 45.3333 27.1516 43.1995 28 40.6667C25.5914 40.6667 23.0334 38.1107 23.0334 36C21.6196 36.4222 18.6667 38.8911 18.6667 45.3333Z" fill="#0583F2"></path></svg>