<svg xmlns="http://www.w3.org/2000/svg" width="64" height="64" viewBox="0 0 64 64" fill="none"><rect width="64" height="64" rx="32" fill="#EAFDFE"></rect><path d="M32 19.5287C34.2481 22.7351 35.6204 26.6015 35.9349 30.6667H28.0651C28.3796 26.6015 29.7519 22.7351 32 19.5287Z" fill="#0583F2"></path><path d="M46.6069 33.3333H38.6087C38.2731 38.1684 36.593 42.7876 33.7804 46.5597C40.6057 45.7338 45.9863 40.2198 46.6069 33.3333Z" fill="#0583F2"></path><path d="M46.6069 30.6667H38.6087C38.2731 25.8316 36.593 21.2124 33.7804 17.4403C40.6057 18.2662 45.9863 23.7802 46.6069 30.6667Z" fill="#0583F2"></path><path d="M30.2196 17.4403C27.407 21.2124 25.7269 25.8316 25.3913 30.6667H17.3931C18.0137 23.7802 23.3943 18.2662 30.2196 17.4403Z" fill="#0583F2"></path><path d="M17.3931 33.3333C18.0137 40.2198 23.3943 45.7338 30.2196 46.5597C27.4071 42.7876 25.7269 38.1684 25.3913 33.3333H17.3931Z" fill="#0583F2"></path><path d="M32 44.4713C29.7519 41.2648 28.3796 37.3984 28.0651 33.3333H35.9349C35.6204 37.3984 34.2481 41.2648 32 44.4713Z" fill="#0583F2"></path></svg>